<svg xmlns="http://www.w3.org/2000/svg" width="357.24" height="26.91" viewBox="0 0 357.24 26.91">
  <path id="Path_170" data-name="Path 170" d="M3.51,0V-25.818H7.293v11.544H19.11V-25.818h3.783V0H19.11V-12.792H7.293V0Zm26.4,0V-25.818H33.5V0ZM52.572.468a18.422,18.422,0,0,1-5.285-.761,14.214,14.214,0,0,1-4.6-2.321,11.135,11.135,0,0,1-3.237-3.939,12.419,12.419,0,0,1-1.189-5.616,13.789,13.789,0,0,1,1.384-6.416,12.912,12.912,0,0,1,3.627-4.388,15.272,15.272,0,0,1,4.875-2.515,17.6,17.6,0,0,1,5.129-.8,17.44,17.44,0,0,1,2.535.195q1.326.195,2.457.468a11.039,11.039,0,0,1,1.755.546l-.39,2.613a39.2,39.2,0,0,0-4.368-1.6,15.294,15.294,0,0,0-4.368-.624,10.577,10.577,0,0,0-6.2,4.153,12.847,12.847,0,0,0-2.3,7.742A13.719,13.719,0,0,0,43.817-6.24a9.6,9.6,0,0,0,3.881,4A11.5,11.5,0,0,0,53.313-.9a16.59,16.59,0,0,0,1.794-.1,15.441,15.441,0,0,0,1.755-.292v-9.828h3.783V-.858A15.135,15.135,0,0,1,58.032-.1a27.762,27.762,0,0,1-2.867.429Q53.742.468,52.572.468ZM67.041,0V-25.818h3.783v11.544H82.641V-25.818h3.783V0H82.641V-12.792H70.824V0Zm35.841,0,1.443-25.818h3.627l9.009,19.7,8.619-19.7h3.978L131,0h-3.978L125.97-22.191h-.156L115.986,0h-.546l-9.633-21.294h-.156L104.6,0Zm31.863,0,11.583-26.442h.585L158.5,0h-4.251L151.32-7.02H139.737L136.851,0Zm5.577-8.5H150.7l-5.148-12.636ZM162.4,0V-25.818h3.588V0Zm29.562.429L174.876-20.943h-.156V0H173V-25.818h2.886L190.749-7.059h.156V-25.818h1.716V.429ZM204.672,0V-23.946a10.524,10.524,0,0,0-1.248-.234,11.4,11.4,0,0,0-1.4-.078l-5.265,1.209-.234-2.769h20.085l-.2,2.769-5.3-1.209a11.4,11.4,0,0,0-1.4.078,10.525,10.525,0,0,0-1.248.234V0Zm15.834,0V-25.818h15.639l-.39,2.613L228.5-24.414a11.9,11.9,0,0,0-2.106.176q-.975.176-2.106.487v9.477h8.658v1.482h-8.658V-1.4l12.09-1.209L235.989,0Zm40.872.429L244.3-20.943h-.156V0h-1.716V-25.818h2.886L260.169-7.059h.156V-25.818h1.716V.429ZM265.941,0l11.583-26.442h.585L289.692,0h-4.251l-2.925-7.02H270.933L268.047,0Zm5.577-8.5h10.374l-5.148-12.636ZM312.546.429,295.464-20.943h-.156V0h-1.716V-25.818h2.886L311.337-7.059h.156V-25.818h1.716V.429Zm19.578.039a18.9,18.9,0,0,1-5.382-.761,13.539,13.539,0,0,1-4.583-2.34,11.306,11.306,0,0,1-3.178-3.959,12.593,12.593,0,0,1-1.17-5.616,14.123,14.123,0,0,1,1.345-6.416,12.428,12.428,0,0,1,3.569-4.368,15.213,15.213,0,0,1,4.875-2.5,18.042,18.042,0,0,1,5.226-.8,17.44,17.44,0,0,1,2.535.195q1.326.195,2.457.468a15.872,15.872,0,0,1,1.755.507l-.39,2.652q-2.106-.9-4.153-1.56a14.831,14.831,0,0,0-4.583-.663,10.072,10.072,0,0,0-6.318,4.075,13.3,13.3,0,0,0-2.184,7.781,13.836,13.836,0,0,0,1.423,6.572,9.574,9.574,0,0,0,3.88,4.017A11.5,11.5,0,0,0,332.865-.9a16.233,16.233,0,0,0,4.1-.527A7.86,7.86,0,0,0,340.2-3V-.858a15.134,15.134,0,0,1-2.613.761,27.762,27.762,0,0,1-2.866.429Q333.294.468,332.124.468ZM344.877,0V-25.818h15.639l-.39,2.613-7.254-1.209a11.9,11.9,0,0,0-2.106.176q-.975.176-2.106.487v9.477h8.658v1.482H348.66V-1.4l12.09-1.209L360.36,0Z" transform="translate(-3.51 26.442)" fill="#ececec"/>
</svg>
